<svg xmlns="http://www.w3.org/2000/svg" width="128" height="128" viewBox="0 0 128 128">
  <defs>
    <linearGradient id="grad1" x1="0%" y1="0%" x2="100%" y2="100%">
      <stop offset="0%" style="stop-color:#3498db;stop-opacity:1" />
      <stop offset="100%" style="stop-color:#2980b9;stop-opacity:1" />
    </linearGradient>
  </defs>
  <rect width="128" height="128" rx="16" fill="url(#grad1)"/>
  <g fill="white">
    <!-- JSON braces -->
    <path d="M28 28 Q16 28 16 40 L16 88 Q16 100 28 100" stroke="white" stroke-width="4" fill="none"/>
    <path d="M100 28 Q112 28 112 40 L112 88 Q112 100 100 100" stroke="white" stroke-width="4" fill="none"/>
    
    <!-- Table grid -->
    <g transform="translate(40, 40)">
      <!-- Headers -->
      <rect x="0" y="0" width="16" height="12" fill="white" opacity="0.8"/>
      <rect x="16" y="0" width="16" height="12" fill="white" opacity="0.8"/>
      <rect x="32" y="0" width="16" height="12" fill="white" opacity="0.8"/>
      
      <!-- Data rows -->
      <rect x="0" y="12" width="16" height="12" fill="none" stroke="white" stroke-width="1"/>
      <rect x="16" y="12" width="16" height="12" fill="none" stroke="white" stroke-width="1"/>
      <rect x="32" y="12" width="16" height="12" fill="none" stroke="white" stroke-width="1"/>
      
      <rect x="0" y="24" width="16" height="12" fill="none" stroke="white" stroke-width="1"/>
      <rect x="16" y="24" width="16" height="12" fill="none" stroke="white" stroke-width="1"/>
      <rect x="32" y="24" width="16" height="12" fill="none" stroke="white" stroke-width="1"/>
      
      <rect x="0" y="36" width="16" height="12" fill="none" stroke="white" stroke-width="1"/>
      <rect x="16" y="36" width="16" height="12" fill="none" stroke="white" stroke-width="1"/>
      <rect x="32" y="36" width="16" height="12" fill="none" stroke="white" stroke-width="1"/>
    </g>
    
    <!-- Arrow showing conversion -->
    <g transform="translate(64, 20)">
      <path d="M-8 0 L8 0 M4 -4 L8 0 L4 4" stroke="white" stroke-width="2" fill="none"/>
    </g>
  </g>
</svg> 