<svg xmlns="http://www.w3.org/2000/svg" width="48" height="48" viewBox="0 0 48 48">
  <defs>
    <linearGradient id="grad1" x1="0%" y1="0%" x2="100%" y2="100%">
      <stop offset="0%" style="stop-color:#3498db;stop-opacity:1" />
      <stop offset="100%" style="stop-color:#2980b9;stop-opacity:1" />
    </linearGradient>
  </defs>
  <rect width="48" height="48" rx="6" fill="url(#grad1)"/>
  <g fill="white">
    <!-- JSON braces -->
    <path d="M10 10 Q6 10 6 14 L6 34 Q6 38 10 38" stroke="white" stroke-width="2" fill="none"/>
    <path d="M38 10 Q42 10 42 14 L42 34 Q42 38 38 38" stroke="white" stroke-width="2" fill="none"/>
    
    <!-- Table grid -->
    <g transform="translate(16, 16)">
      <rect x="0" y="0" width="6" height="6" fill="none" stroke="white" stroke-width="1"/>
      <rect x="6" y="0" width="6" height="6" fill="none" stroke="white" stroke-width="1"/>
      <rect x="12" y="0" width="4" height="6" fill="none" stroke="white" stroke-width="1"/>
      <rect x="0" y="6" width="6" height="6" fill="none" stroke="white" stroke-width="1"/>
      <rect x="6" y="6" width="6" height="6" fill="none" stroke="white" stroke-width="1"/>
      <rect x="12" y="6" width="4" height="6" fill="none" stroke="white" stroke-width="1"/>
      <rect x="0" y="12" width="6" height="4" fill="none" stroke="white" stroke-width="1"/>
      <rect x="6" y="12" width="6" height="4" fill="none" stroke="white" stroke-width="1"/>
      <rect x="12" y="12" width="4" height="4" fill="none" stroke="white" stroke-width="1"/>
    </g>
  </g>
</svg> 